#define 79120736ac864289e0ba37a88bab371eO2D84V9ff2UqRFVC_width 16
#define 79120736ac864289e0ba37a88bab371eO2D84V9ff2UqRFVC_height 16
static char 79120736ac864289e0ba37a88bab371eO2D84V9ff2UqRFVC_bits[] = {
  0xFF, 0xFF, 0x29, 0x84, 0x25, 0x86, 0xA9, 0x86, 0x25, 0x85, 0xFF, 0xFF, 
  0xE1, 0xA4, 0x61, 0xD5, 0x61, 0xD4, 0xA1, 0xA4, 0xFF, 0xFF, 0x25, 0x84, 
  0x35, 0xD4, 0x29, 0xD4, 0x35, 0xA4, 0xFF, 0xFF, };
